<?xml version="1.0" standalone="no"?>
<!DOCTYPE svg PUBLIC "-//W3C//DTD SVG 20010904//EN"
 "http://www.w3.org/TR/2001/REC-SVG-20010904/DTD/svg10.dtd">
<svg version="1.0" xmlns="http://www.w3.org/2000/svg"
 width="512.000000pt" height="512.000000pt" viewBox="0 0 512.000000 512.000000"
 preserveAspectRatio="xMidYMid meet">
<metadata>
Created by potrace 1.16, written by Peter Selinger 2001-2019
</metadata>
<g transform="translate(0.000000,512.000000) scale(0.100000,-0.100000)"
fill="#000000" stroke="none">
<path d="M792 3348 l3 -1723 38 -105 c21 -58 40 -109 41 -115 5 -21 100 -202
139 -264 211 -338 565 -642 1035 -890 183 -97 454 -221 481 -221 22 0 260 113
418 198 309 168 551 341 757 541 194 190 318 354 416 551 23 47 48 88 54 92 6
4 8 8 4 8 -4 0 -3 12 3 28 6 15 26 70 45 122 l34 95 0 1702 0 1703 -1735 0
-1735 0 2 -1722z m3436 22 c2 -1207 0 -1681 -8 -1725 -14 -72 -86 -251 -142
-355 -248 -454 -670 -812 -1353 -1147 l-192 -94 -119 52 c-160 69 -324 152
-485 245 -554 317 -906 707 -1071 1184 l-33 95 -3 1708 -2 1707 1702 -2 1703
-3 3 -1665z"/>
<path d="M930 4615 l0 -315 1595 0 1595 0 0 315 0 315 -1595 0 -1595 0 0 -315z
m3150 0 l0 -275 -1555 0 -1555 0 0 275 0 275 1555 0 1555 0 0 -275z"/>
<path d="M1305 4808 c-3 -7 -16 -48 -29 -90 l-24 -78 23 0 c13 0 25 5 27 12 6
17 44 19 58 3 7 -8 23 -15 36 -15 l23 0 -31 90 c-27 81 -32 90 -54 90 -14 0
-27 -6 -29 -12z"/>
<path d="M1596 4738 c-15 -46 -26 -87 -26 -91 0 -12 48 -8 52 5 6 18 48 20 54
3 4 -8 17 -15 31 -15 27 0 28 -8 -11 108 -20 58 -26 67 -49 70 -25 3 -27 -1
-51 -80z"/>
<path d="M1770 4800 c-34 -34 -19 -72 35 -90 38 -12 45 -27 19 -37 -10 -4 -20
0 -26 10 -5 10 -18 17 -29 17 -31 0 -21 -42 14 -58 36 -18 72 -8 93 24 23 34
7 68 -40 84 -20 6 -36 16 -36 21 0 12 27 12 35 -1 9 -15 45 -12 45 3 0 22 -34
47 -63 47 -15 0 -36 -9 -47 -20z"/>
<path d="M1936 4740 c-14 -45 -26 -85 -26 -91 0 -15 36 -11 50 6 7 8 21 15 32
15 10 0 21 -7 24 -15 4 -8 17 -15 31 -15 27 0 28 -8 -11 108 -20 58 -26 67
-49 70 -24 3 -27 -2 -51 -78z"/>
<path d="M2097 4813 c-4 -3 -7 -44 -7 -90 0 -81 0 -83 24 -83 22 0 25 5 28 43
l3 42 24 -42 c18 -31 31 -43 48 -43 22 0 23 3 23 90 0 82 -2 90 -19 90 -17 0
-20 -8 -23 -47 l-3 -48 -28 48 c-27 43 -52 58 -70 40z"/>
<path d="M2362 4730 l-31 -90 24 0 c12 0 25 7 29 15 3 8 16 15 30 15 13 0 26
-7 30 -15 3 -8 16 -15 30 -15 l25 0 -20 63 c-36 111 -40 117 -64 117 -20 0
-27 -12 -53 -90z"/>
<path d="M2757 4813 c-4 -3 -7 -44 -7 -90 0 -82 0 -83 25 -83 18 0 25 5 25 19
0 10 6 24 14 30 12 10 18 7 31 -18 11 -22 23 -31 40 -31 31 0 31 0 0 60 l-25
49 25 29 c31 38 31 42 -2 42 -18 0 -36 -11 -54 -32 l-28 -33 -1 33 c0 24 -4
32 -18 32 -10 0 -22 -3 -25 -7z"/>
<path d="M2985 4811 c-8 -14 -55 -152 -55 -163 0 -14 48 -8 54 7 3 8 15 15 26
15 11 0 23 -7 26 -15 7 -18 54 -20 53 -2 0 6 -12 46 -27 87 -21 59 -32 76 -49
78 -11 2 -24 -2 -28 -7z"/>
<path d="M3117 4814 c-4 -4 -7 -36 -7 -71 0 -55 4 -68 25 -88 31 -32 69 -32
101 0 22 22 25 32 22 93 -3 59 -5 67 -23 67 -17 0 -21 -8 -25 -65 -4 -57 -8
-65 -25 -65 -17 0 -21 8 -25 65 -4 48 -9 66 -20 68 -9 1 -19 0 -23 -4z"/>
<path d="M3482 4804 c-36 -25 -26 -64 22 -89 21 -11 38 -24 38 -30 -1 -17 -32
-17 -38 -1 -7 18 -39 22 -49 6 -9 -15 41 -60 67 -60 40 0 68 27 68 66 0 32 -4
37 -40 51 -40 16 -53 33 -25 33 8 0 15 -4 15 -10 0 -5 11 -10 25 -10 31 0 33
23 3 44 -29 20 -58 20 -86 0z"/>
<path d="M3665 4808 c-3 -7 -16 -48 -29 -90 -24 -77 -24 -78 -4 -78 12 0 27 8
34 18 12 16 14 16 44 0 18 -10 40 -18 50 -18 17 0 16 7 -12 90 -27 81 -32 90
-54 90 -14 0 -27 -6 -29 -12z"/>
<path d="M3808 4814 c-5 -4 -8 -45 -8 -91 0 -81 0 -83 24 -83 21 0 25 5 28 38
l3 37 24 -37 c16 -27 30 -38 47 -38 29 0 30 6 5 45 -15 26 -16 33 -5 43 16 15
18 50 5 71 -10 15 -111 28 -123 15z"/>
<path d="M1402 4488 l3 -83 83 -3 c82 -3 82 -3 82 23 0 23 -3 25 -50 25 l-50
0 0 60 0 60 -35 0 -36 0 3 -82z"/>
<path d="M1726 4494 c-20 -42 -36 -80 -36 -85 0 -15 57 -10 64 6 3 10 19 15
45 15 25 0 41 -5 45 -15 6 -17 66 -21 66 -5 0 5 -17 43 -37 85 -36 73 -38 75
-74 75 -36 0 -38 -2 -73 -76z"/>
<path d="M2040 4486 c0 -85 0 -86 25 -86 24 0 25 3 26 58 l1 57 20 -58 c18
-52 23 -58 46 -55 21 2 29 12 43 53 l17 50 3 -50 c4 -46 6 -50 29 -50 24 0 25
2 28 83 l3 82 -45 0 c-43 0 -45 -2 -57 -37 -18 -58 -21 -59 -38 -12 -16 42
-19 44 -59 47 l-42 3 0 -85z"/>
<path d="M2420 4484 l0 -85 33 3 c26 2 33 8 35 30 3 23 9 27 45 33 51 9 67 21
67 51 0 37 -36 54 -112 54 l-68 0 0 -86z"/>
<path d="M2740 4506 c0 -58 3 -67 26 -85 19 -15 41 -21 74 -21 33 0 55 6 74
21 23 18 26 27 26 85 l0 64 -30 0 c-28 0 -29 -1 -32 -56 -3 -64 -23 -88 -55
-68 -13 8 -19 27 -21 68 -3 55 -4 56 -32 56 l-30 0 0 -64z"/>
<path d="M3090 4485 l0 -85 30 0 c29 0 30 1 30 48 l0 47 41 -47 c31 -37 47
-48 70 -48 l29 0 0 85 0 85 -30 0 c-29 0 -30 -2 -30 -42 l0 -42 -43 42 c-29
28 -51 42 -70 42 l-27 0 0 -85z"/>
<path d="M3475 4558 c-52 -28 -61 -89 -20 -128 32 -30 107 -38 158 -17 33 14
37 20 37 52 l0 36 -52 -3 c-39 -2 -53 -7 -53 -18 0 -8 10 -16 23 -18 30 -5 18
-22 -16 -22 -41 0 -54 13 -50 51 l3 34 68 -3 c71 -3 83 5 45 32 -26 18 -113
21 -143 4z"/>
<path d="M937 4263 c-4 -3 -7 -585 -7 -1292 l0 -1285 26 -84 c99 -327 321
-641 624 -885 114 -92 307 -220 464 -307 130 -73 427 -215 471 -226 18 -4 72
18 207 84 421 208 698 400 943 654 186 192 304 373 401 613 l49 120 0 1305 0
1305 -1586 2 c-872 2 -1589 0 -1592 -4z m3148 -1313 l0 -1275 -28 -75 c-204
-538 -604 -927 -1320 -1286 -103 -52 -197 -94 -207 -94 -11 0 -89 32 -172 70
-744 342 -1171 747 -1360 1290 l-33 95 -3 1278 -2 1277 1562 -2 1563 -3 0
-1275z"/>
<path d="M1451 3906 c-57 -58 -80 -87 -70 -90 24 -8 869 -14 869 -7 0 4 -28
45 -63 92 l-62 84 -295 3 -295 2 -84 -84z"/>
<path d="M2924 3982 c-15 -10 -124 -160 -124 -171 0 -9 841 -4 869 5 10 3 -13
32 -69 89 l-85 85 -290 0 c-159 0 -295 -4 -301 -8z"/>
<path d="M1315 3745 c-20 -16 -133 -153 -144 -173 -8 -15 18 -61 145 -257 85
-131 154 -243 154 -250 0 -6 -21 -40 -46 -76 l-45 -64 7 -105 6 -105 -35 -17
c-156 -74 -218 -305 -130 -487 l26 -56 9 90 c6 69 15 105 38 152 33 67 91 123
127 123 14 0 50 -25 95 -66 75 -69 101 -84 146 -84 85 0 196 159 178 254 -15
77 -110 142 -218 149 -29 1 -59 6 -66 11 -14 9 -16 90 -2 115 12 24 81 51 128
51 53 0 136 -23 269 -75 63 -25 119 -45 124 -45 11 0 40 61 164 348 48 112 83
208 79 212 -15 13 -314 -33 -325 -50 -19 -30 -22 -66 -9 -120 22 -97 24 -129
6 -136 -26 -10 -125 12 -217 47 -71 27 -93 42 -144 94 -105 108 -165 238 -135
295 l12 22 359 -7 c349 -7 359 -7 352 11 -3 11 -28 58 -55 106 l-49 86 -102 6
c-190 11 -689 12 -702 1z m406 -1114 c33 -33 35 -50 14 -90 -16 -32 -33 -41
-76 -41 -59 0 -101 78 -66 122 36 45 88 49 128 9z"/>
<path d="M3290 3751 c-190 -4 -350 -10 -357 -14 -12 -8 -113 -188 -113 -202 0
-4 161 -4 359 0 284 6 360 4 366 -6 42 -67 -67 -271 -189 -353 -57 -39 -175
-81 -253 -92 -70 -9 -77 6 -51 106 21 81 18 128 -10 153 -10 9 -64 21 -142 31
-69 9 -135 19 -148 21 -14 4 -24 0 -28 -9 -7 -17 225 -556 239 -556 6 0 68 23
139 50 202 79 303 88 368 34 31 -26 37 -58 21 -112 -5 -20 -14 -24 -59 -27
-128 -9 -220 -72 -229 -158 -7 -58 10 -106 58 -167 62 -79 123 -99 184 -61 17
10 58 44 93 75 34 31 71 56 80 56 24 0 78 -41 108 -82 34 -45 55 -125 57 -208
1 -39 5 -70 9 -70 10 0 46 80 59 133 6 26 10 82 7 125 -7 127 -69 232 -161
276 l-37 17 0 113 0 112 -45 64 c-24 34 -41 68 -38 74 27 46 279 434 289 447
25 29 14 53 -64 144 -76 88 -79 90 -122 91 -25 0 -200 -2 -390 -5z m152 -1121
c25 -26 29 -36 24 -63 -13 -66 -93 -91 -141 -42 -40 39 -31 94 20 123 34 19
65 13 97 -18z"/>
<path d="M2230 2693 c-175 -17 -282 -74 -324 -175 -21 -48 -20 -70 4 -146 11
-35 20 -67 20 -70 0 -4 -44 -7 -98 -8 -163 -1 -270 -43 -375 -148 -193 -193
-218 -398 -76 -631 18 -30 42 -66 54 -80 l20 -26 0 158 c0 173 10 231 56 330
74 158 246 228 499 205 132 -13 146 -7 177 71 l24 58 -51 46 c-57 51 -80 89
-80 131 0 53 53 82 161 89 l79 6 0 93 c0 75 -3 94 -14 94 -8 0 -20 2 -28 3 -7
2 -29 2 -48 0z"/>
<path d="M2750 2690 c-24 -6 -25 -9 -26 -97 l0 -90 78 -6 c92 -6 149 -30 162
-69 14 -39 -17 -101 -77 -153 l-49 -43 17 -49 c30 -81 41 -88 137 -82 232 12
352 -9 443 -79 56 -42 108 -121 130 -197 24 -78 36 -221 29 -322 -4 -51 -4
-93 -2 -93 10 0 87 125 118 192 91 195 53 367 -119 539 -71 71 -98 90 -154
113 -77 30 -207 51 -273 43 -24 -2 -44 -1 -44 4 0 5 9 41 20 81 16 59 18 78 9
114 -23 89 -120 164 -239 183 -106 16 -134 18 -160 11z"/>
<path d="M2486 2511 l-28 -99 -36 -6 c-21 -3 -66 -6 -102 -6 l-65 -1 35 -32
c19 -17 55 -48 78 -68 l44 -35 -26 -108 c-14 -59 -26 -110 -26 -113 0 -3 23
15 51 39 28 23 63 53 78 65 l27 22 78 -61 c42 -33 79 -58 82 -55 3 2 -7 49
-22 103 l-28 98 79 73 80 73 -97 0 -97 0 -33 105 c-18 57 -36 105 -39 105 -3
0 -18 -44 -33 -99z"/>
<path d="M2015 1742 l-69 -37 -78 -269 c-43 -149 -76 -271 -75 -272 1 -1 47
-21 102 -44 148 -63 138 -54 118 -96 -15 -30 -15 -37 -3 -44 7 -5 88 -37 179
-71 91 -34 170 -65 174 -69 5 -4 -75 -36 -177 -70 -102 -34 -186 -64 -186 -68
0 -20 46 -142 53 -142 5 0 112 48 238 106 l228 106 232 -111 c128 -61 233
-110 234 -109 1 2 14 38 28 81 l26 78 -22 8 c-12 5 -95 32 -184 62 -90 29
-163 56 -163 59 0 3 86 34 190 68 105 35 190 67 190 72 0 4 -7 24 -15 44 l-16
37 68 31 c37 17 91 41 120 54 l53 23 -93 271 -92 272 -86 35 -86 35 -200 -86
-201 -86 -201 85 c-110 47 -204 85 -208 85 -4 0 -39 -17 -78 -38z m1 -268
c-37 -141 -65 -258 -64 -259 2 -1 128 -57 282 -124 l278 -123 267 122 c146 68
267 124 269 125 2 2 -108 455 -124 508 -7 22 11 22 34 -1 17 -17 159 -499 149
-508 -7 -7 -580 -264 -588 -264 -4 0 -143 62 -309 137 -201 91 -299 141 -296
149 3 7 32 118 66 246 38 147 67 238 77 245 9 7 18 11 20 9 3 -2 -25 -120 -61
-262z m290 187 l159 -68 7 -49 c3 -27 7 -156 7 -288 1 -216 -1 -238 -15 -232
-56 22 -461 201 -468 207 -5 5 17 112 54 259 53 209 66 249 80 245 9 -3 88
-36 176 -74z m632 -118 c71 -275 77 -302 66 -312 -13 -13 -454 -214 -459 -210
-1 2 -5 132 -7 287 l-3 284 170 73 c94 41 173 74 176 74 3 1 29 -88 57 -196z
m-998 -93 c-35 -132 -61 -242 -58 -245 2 -3 148 -70 324 -150 175 -80 314
-145 307 -145 -22 0 -658 254 -676 270 -10 9 131 502 146 512 6 4 13 5 16 3 2
-3 -25 -113 -59 -245z m1107 238 c6 -7 45 -119 88 -248 43 -129 80 -240 82
-246 5 -13 -173 -90 -432 -187 -110 -42 -213 -80 -230 -87 -16 -6 -25 -7 -20
-2 6 5 145 68 310 142 165 73 301 134 303 135 2 2 -104 389 -134 488 -6 20 18
24 33 5z m-755 -734 l218 -86 235 87 c128 48 238 84 243 81 5 -3 12 -14 15
-25 3 -14 -2 -21 -20 -26 -63 -15 -413 -139 -413 -145 0 -4 91 -38 203 -75
111 -37 206 -71 210 -75 7 -6 -10 -90 -18 -90 -2 0 -69 32 -151 71 -82 39
-182 86 -222 105 l-73 34 -217 -100 c-119 -56 -221 -102 -226 -103 -7 -2 -40
74 -34 78 2 1 96 33 210 71 114 38 207 74 207 79 0 6 -14 15 -32 22 -75 27
-382 144 -385 147 -6 7 11 36 21 36 6 0 109 -39 229 -86z"/>
</g>
</svg>
